<svg xmlns="http://www.w3.org/2000/svg" xmlns:xlink="http://www.w3.org/1999/xlink" width="126" zoomAndPan="magnify" viewBox="0 0 94.5 30.000001" height="40" preserveAspectRatio="xMidYMid meet" version="1.0"><defs><g/><clipPath id="4930865fd3"><path d="M 1.28125 8 L 13 8 L 13 22 L 1.28125 22 Z M 1.28125 8 " clip-rule="nonzero"/></clipPath><clipPath id="c04de6e3a6"><path d="M 78 11 L 92.734375 11 L 92.734375 22 L 78 22 Z M 78 11 " clip-rule="nonzero"/></clipPath></defs><g clip-path="url(#4930865fd3)"><g fill="#ff5200" fill-opacity="1"><g transform="translate(0.111521, 21.508702)"><g><path d="M 1.6875 0 L 1.6875 -13.015625 L 7.25 -13.015625 C 8.050781 -13.015625 8.726562 -12.890625 9.28125 -12.640625 C 9.832031 -12.390625 10.25 -12.03125 10.53125 -11.5625 C 10.820312 -11.09375 10.96875 -10.539062 10.96875 -9.90625 C 10.96875 -9.332031 10.828125 -8.828125 10.546875 -8.390625 C 10.265625 -7.953125 9.863281 -7.597656 9.34375 -7.328125 L 9.34375 -7.140625 C 10.164062 -6.921875 10.796875 -6.53125 11.234375 -5.96875 C 11.679688 -5.40625 11.90625 -4.71875 11.90625 -3.90625 C 11.90625 -2.65625 11.53125 -1.691406 10.78125 -1.015625 C 10.03125 -0.335938 8.914062 0 7.4375 0 Z M 6.71875 -7.828125 C 7.914062 -7.828125 8.515625 -8.367188 8.515625 -9.453125 C 8.515625 -10.003906 8.363281 -10.410156 8.0625 -10.671875 C 7.769531 -10.941406 7.320312 -11.078125 6.71875 -11.078125 L 4.265625 -11.078125 L 4.265625 -7.828125 Z M 7.1875 -2.03125 C 8.601562 -2.03125 9.3125 -2.675781 9.3125 -3.96875 C 9.3125 -5.257812 8.601562 -5.90625 7.1875 -5.90625 L 4.265625 -5.90625 L 4.265625 -2.03125 Z M 7.1875 -2.03125 "/></g></g></g></g><g fill="#000000" fill-opacity="1"><g transform="translate(12.851113, 21.508702)"><g><path d="M 4.5 0.1875 C 3.394531 0.1875 2.578125 -0.113281 2.046875 -0.71875 C 1.523438 -1.320312 1.265625 -2.1875 1.265625 -3.3125 L 1.265625 -9.828125 L 3.734375 -9.828125 L 3.734375 -3.625 C 3.734375 -3.019531 3.859375 -2.578125 4.109375 -2.296875 C 4.367188 -2.023438 4.769531 -1.890625 5.3125 -1.890625 C 6 -1.890625 6.53125 -2.113281 6.90625 -2.5625 C 7.289062 -3.007812 7.484375 -3.71875 7.484375 -4.6875 L 7.484375 -9.828125 L 9.9375 -9.828125 L 9.9375 0 L 7.578125 0 L 7.578125 -1.4375 L 7.390625 -1.484375 C 7.078125 -0.921875 6.691406 -0.5 6.234375 -0.21875 C 5.785156 0.0507812 5.207031 0.1875 4.5 0.1875 Z M 4.5 0.1875 "/></g></g></g><g fill="#000000" fill-opacity="1"><g transform="translate(24.21257, 21.508702)"><g><path d="M 2.640625 -11 C 2.203125 -11 1.84375 -11.132812 1.5625 -11.40625 C 1.28125 -11.675781 1.140625 -12.023438 1.140625 -12.453125 C 1.140625 -12.867188 1.28125 -13.210938 1.5625 -13.484375 C 1.84375 -13.753906 2.203125 -13.890625 2.640625 -13.890625 C 2.941406 -13.890625 3.207031 -13.828125 3.4375 -13.703125 C 3.664062 -13.578125 3.84375 -13.40625 3.96875 -13.1875 C 4.101562 -12.96875 4.171875 -12.722656 4.171875 -12.453125 C 4.171875 -12.171875 4.101562 -11.921875 3.96875 -11.703125 C 3.84375 -11.484375 3.664062 -11.3125 3.4375 -11.1875 C 3.207031 -11.0625 2.941406 -11 2.640625 -11 Z M 1.421875 0 L 1.421875 -9.828125 L 3.875 -9.828125 L 3.875 0 Z M 1.421875 0 "/></g></g></g><g fill="#000000" fill-opacity="1"><g transform="translate(29.501524, 21.508702)"><g><path d="M 4.078125 0.1875 C 3.191406 0.1875 2.515625 -0.0507812 2.046875 -0.53125 C 1.585938 -1.007812 1.359375 -1.734375 1.359375 -2.703125 L 1.359375 -13.765625 L 3.8125 -13.765625 L 3.8125 -2.796875 C 3.8125 -2.203125 4.0625 -1.90625 4.5625 -1.90625 C 4.707031 -1.90625 4.859375 -1.929688 5.015625 -1.984375 L 5.140625 -1.9375 L 5.375 -0.046875 C 5.226562 0.0234375 5.039062 0.0820312 4.8125 0.125 C 4.59375 0.164062 4.347656 0.1875 4.078125 0.1875 Z M 4.078125 0.1875 "/></g></g></g><g fill="#000000" fill-opacity="1"><g transform="translate(35.146637, 21.508702)"><g><path d="M 4.859375 0.1875 C 4.078125 0.1875 3.382812 0 2.78125 -0.375 C 2.1875 -0.75 1.71875 -1.316406 1.375 -2.078125 C 1.039062 -2.847656 0.875 -3.789062 0.875 -4.90625 C 0.875 -6.03125 1.046875 -6.972656 1.390625 -7.734375 C 1.742188 -8.492188 2.226562 -9.0625 2.84375 -9.4375 C 3.457031 -9.8125 4.171875 -10 4.984375 -10 C 5.585938 -10 6.113281 -9.894531 6.5625 -9.6875 C 7.007812 -9.476562 7.390625 -9.148438 7.703125 -8.703125 L 7.890625 -8.75 L 7.890625 -13.765625 L 10.359375 -13.765625 L 10.359375 0 L 7.890625 0 L 7.890625 -1.265625 L 7.703125 -1.3125 C 7.429688 -0.84375 7.054688 -0.472656 6.578125 -0.203125 C 6.109375 0.0546875 5.535156 0.1875 4.859375 0.1875 Z M 5.65625 -1.90625 C 6.351562 -1.90625 6.898438 -2.148438 7.296875 -2.640625 C 7.703125 -3.140625 7.90625 -3.894531 7.90625 -4.90625 C 7.90625 -5.914062 7.703125 -6.671875 7.296875 -7.171875 C 6.898438 -7.671875 6.351562 -7.921875 5.65625 -7.921875 C 4.925781 -7.921875 4.367188 -7.675781 3.984375 -7.1875 C 3.609375 -6.707031 3.421875 -5.945312 3.421875 -4.90625 C 3.421875 -3.875 3.609375 -3.113281 3.984375 -2.625 C 4.367188 -2.144531 4.925781 -1.90625 5.65625 -1.90625 Z M 5.65625 -1.90625 "/></g></g></g><g fill="#000000" fill-opacity="1"><g transform="translate(46.917676, 21.508702)"><g><path d="M 7.109375 0.1875 C 5.910156 0.1875 4.851562 -0.0625 3.9375 -0.5625 C 3.03125 -1.0625 2.316406 -1.8125 1.796875 -2.8125 C 1.285156 -3.8125 1.03125 -5.046875 1.03125 -6.515625 C 1.03125 -7.972656 1.285156 -9.203125 1.796875 -10.203125 C 2.316406 -11.203125 3.03125 -11.953125 3.9375 -12.453125 C 4.851562 -12.953125 5.910156 -13.203125 7.109375 -13.203125 C 8.367188 -13.203125 9.4375 -12.957031 10.3125 -12.46875 C 11.1875 -11.976562 11.8125 -11.234375 12.1875 -10.234375 L 10.296875 -9.078125 L 10.078125 -9.09375 C 9.796875 -9.769531 9.414062 -10.253906 8.9375 -10.546875 C 8.46875 -10.835938 7.859375 -10.984375 7.109375 -10.984375 C 6.035156 -10.984375 5.191406 -10.625 4.578125 -9.90625 C 3.972656 -9.195312 3.671875 -8.066406 3.671875 -6.515625 C 3.671875 -4.960938 3.972656 -3.828125 4.578125 -3.109375 C 5.191406 -2.390625 6.035156 -2.03125 7.109375 -2.03125 C 8.804688 -2.03125 9.84375 -2.851562 10.21875 -4.5 L 10.4375 -4.5 L 12.34375 -3.515625 C 11.988281 -2.285156 11.378906 -1.359375 10.515625 -0.734375 C 9.648438 -0.117188 8.515625 0.1875 7.109375 0.1875 Z M 7.109375 0.1875 "/></g></g></g><g fill="#000000" fill-opacity="1"><g transform="translate(59.685959, 21.508702)"><g><path d="M 1.421875 0 L 1.421875 -9.828125 L 3.8125 -9.828125 L 3.8125 -8.359375 L 4 -8.328125 C 4.238281 -8.867188 4.550781 -9.265625 4.9375 -9.515625 C 5.320312 -9.773438 5.789062 -9.90625 6.34375 -9.90625 C 6.894531 -9.90625 7.316406 -9.8125 7.609375 -9.625 L 7.1875 -7.5 L 7 -7.46875 C 6.84375 -7.53125 6.691406 -7.570312 6.546875 -7.59375 C 6.398438 -7.625 6.21875 -7.640625 6 -7.640625 C 5.3125 -7.640625 4.785156 -7.398438 4.421875 -6.921875 C 4.054688 -6.441406 3.875 -5.664062 3.875 -4.59375 L 3.875 0 Z M 1.421875 0 "/></g></g></g><g fill="#000000" fill-opacity="1"><g transform="translate(67.387892, 21.508702)"><g><path d="M 9.703125 -4.359375 L 3.390625 -4.359375 C 3.460938 -3.503906 3.707031 -2.878906 4.125 -2.484375 C 4.539062 -2.097656 5.109375 -1.90625 5.828125 -1.90625 C 6.390625 -1.90625 6.84375 -2.007812 7.1875 -2.21875 C 7.539062 -2.425781 7.828125 -2.742188 8.046875 -3.171875 L 8.234375 -3.171875 L 9.859375 -2.125 C 9.546875 -1.4375 9.0625 -0.878906 8.40625 -0.453125 C 7.757812 -0.0234375 6.898438 0.1875 5.828125 0.1875 C 4.804688 0.1875 3.925781 -0.00390625 3.1875 -0.390625 C 2.445312 -0.773438 1.875 -1.347656 1.46875 -2.109375 C 1.070312 -2.878906 0.875 -3.8125 0.875 -4.90625 C 0.875 -6.019531 1.082031 -6.957031 1.5 -7.71875 C 1.925781 -8.488281 2.5 -9.0625 3.21875 -9.4375 C 3.9375 -9.8125 4.742188 -10 5.640625 -10 C 7.035156 -10 8.097656 -9.628906 8.828125 -8.890625 C 9.566406 -8.160156 9.9375 -7.082031 9.9375 -5.65625 C 9.9375 -5.144531 9.921875 -4.742188 9.890625 -4.453125 Z M 7.578125 -5.953125 C 7.554688 -6.691406 7.382812 -7.234375 7.0625 -7.578125 C 6.738281 -7.921875 6.265625 -8.09375 5.640625 -8.09375 C 4.398438 -8.09375 3.671875 -7.378906 3.453125 -5.953125 Z M 7.578125 -5.953125 "/></g></g></g><g clip-path="url(#c04de6e3a6)"><g fill="#000000" fill-opacity="1"><g transform="translate(78.063749, 21.508702)"><g><path d="M 5.265625 0 L 2.6875 0 L 0.359375 -9.828125 L 2.640625 -9.828125 L 4.09375 -3.171875 L 4.28125 -3.171875 L 6.140625 -9.828125 L 8.28125 -9.828125 L 10.21875 -3.171875 L 10.40625 -3.171875 L 11.78125 -9.828125 L 14.015625 -9.828125 L 11.703125 0 L 9.125 0 L 7.25 -6.6875 L 7.0625 -6.6875 Z M 5.265625 0 "/></g></g></g></g></svg>